# xmcd CD database file generated by OrangeCD 6.4
#
# Track frame offsets:
#	150
#	15992
#	41194
#	56676
#	71223
#	91166
#	111865
#	132802
#	147787
#	179567
#	216670
#	230278
#	255400
#	275235
#
# Disc length: 3994 seconds
#
# Revision: 3
# Processed by: cddbd v1.5.2PL0 Copyright (c) Steve Scherf et al.
# Submitted via: OrangeCD 6.4
#
DISCID=d30f980e
DTITLE=Drive-By Truckers - Go-Go Boots
DYEAR=2011
DGENRE=Southern Rock
TTITLE0=I Do Believe
TTITLE1=Go-Go Boots
TTITLE2=Dancin' Ricky
TTITLE3=Cartoon Gold
TTITLE4=Ray's Automatic Weapon
TTITLE5=Everybody Needs Love
TTITLE6=Assholes
TTITLE7=The Weakest Man
TTITLE8=Used to Be a Cop
TTITLE9=The Fireplace Poker
TTITLE10=Where's Eddie
TTITLE11=The Thanksgiving Filter
TTITLE12=Pulaski
TTITLE13=Mercy Buckets
EXTD=
EXTT0=
EXTT1=
EXTT2=
EXTT3=
EXTT4=
EXTT5=
EXTT6=
EXTT7=
EXTT8=
EXTT9=
EXTT10=
EXTT11=
EXTT12=
EXTT13=
PLAYORDER=
